<svg xmlns="http://www.w3.org/2000/svg" viewBox="0 0 512 512">
<defs>
  <linearGradient id="rediceGradient" x1="40" y1="40" x2="472" y2="472" gradientUnits="userSpaceOnUse">
    <stop offset="0%" stop-color="#fb923c"/>
    <stop offset="55%" stop-color="#f97316"/>
    <stop offset="100%" stop-color="#facc15"/>
  </linearGradient>
  <filter id="rediceGlow" x="-35%" y="-35%" width="170%" height="170%">
    <feGaussianBlur stdDeviation="7" result="blur"/>
    <feColorMatrix in="blur" type="matrix"
      values="1 0 0 0 1
              0 1 0 0 0.38
              0 0 1 0 0
              0 0 0 0.45 0"/>
    <feMerge>
      <feMergeNode/>
      <feMergeNode in="SourceGraphic"/>
    </feMerge>
  </filter>
</defs>

<g filter="url(#rediceGlow)" opacity="0.62">
  <path d="M248 20.3 72.33 132.6 248 128.8z" fill="url(#rediceGradient)"/>
  <path d="M264 20.3v108.5l175.7 3.8z" fill="url(#rediceGradient)"/>
  <path d="M241.9 144.9 55.39 149l71.21 192.9z" fill="url(#rediceGradient)"/>
  <path d="M270.1 144.9l115.3 197L456.6 149z" fill="url(#rediceGradient)"/>
  <path d="M256 152.4 138.9 352.6h234.2z" fill="url(#rediceGradient)"/>
  <path d="M52 186v173.2l61.9-5.7z" fill="url(#rediceGradient)"/>
  <path d="M460 186l-61.9 167.5 61.9 5.7z" fill="url(#rediceGradient)"/>
  <path d="M143.2 368.6 256 491.7l112.8-123.1z" fill="url(#rediceGradient)"/>
  <path d="M121.8 368.9l-53.84 4.9L256 491.7z" fill="url(#rediceGradient)"/>
  <path d="M390.2 368.9l53.84 4.9L256 491.7z" fill="url(#rediceGradient)"/>
</g>
</svg>
